<svg width="400" height="500" viewBox="0 0 400 500" fill="none" xmlns="http://www.w3.org/2000/svg">
<rect width="400" height="500" fill="#ECF2FF"/>
<path d="M241 269.391V208.359C241 205.944 239.065 204 236.661 204H177.357C167.775 204 160 211.811 160 221.438V279.562C160 289.189 167.775 297 177.357 297H236.661C239.065 297 241 295.056 241 292.641V289.734C241 288.372 240.367 287.137 239.391 286.338C238.631 283.54 238.631 275.566 239.391 272.769C240.367 271.988 241 270.753 241 269.391ZM183.143 228.34C183.143 227.74 183.631 227.25 184.228 227.25H222.558C223.155 227.25 223.643 227.74 223.643 228.34V231.973C223.643 232.572 223.155 233.062 222.558 233.062H184.228C183.631 233.062 183.143 232.572 183.143 231.973V228.34ZM183.143 239.965C183.143 239.365 183.631 238.875 184.228 238.875H222.558C223.155 238.875 223.643 239.365 223.643 239.965V243.598C223.643 244.197 223.155 244.688 222.558 244.688H184.228C183.631 244.688 183.143 244.197 183.143 243.598V239.965ZM228.958 285.375H177.357C174.157 285.375 171.571 282.778 171.571 279.562C171.571 276.366 174.175 273.75 177.357 273.75H228.958C228.615 276.856 228.615 282.269 228.958 285.375Z" fill="#506FFF"/>
</svg>
